<svg data-v-0dd9719b="" version="1.0" xmlns="http://www.w3.org/2000/svg" xmlns:xlink="http://www.w3.org/1999/xlink" width="100%" height="100%" viewBox="0 0 340.000000 250.000000" preserveAspectRatio="xMidYMid meet" color-interpolation-filters="sRGB" style="margin: auto;"> <rect data-v-0dd9719b="" x="0" y="0" width="100%" height="100%" fill="#fff" fill-opacity="1" class="background"></rect> <rect data-v-0dd9719b="" x="0" y="0" width="100%" height="100%" fill="url(#watermark)" fill-opacity="1" class="watermarklayer"></rect> <g data-v-0dd9719b="" fill="#f757af" class="icon-text-wrapper icon-svg-group iconsvg" transform="translate(49.519996643194446,94.17005920410156)"><g class="iconsvg-imagesvg" transform="translate(0,0)"><g><rect fill="#f757af" fill-opacity="0" stroke-width="2" x="0" y="0" width="60" height="61.659884079417935" class="image-rect"></rect> <svg x="0" y="0" width="60" height="61.659884079417935" filtersec="colorsb6192678416" class="image-svg-svg primary" style="overflow: visible;"><svg xmlns="http://www.w3.org/2000/svg" xmlns:xlink="http://www.w3.org/1999/xlink" viewBox="-0.0022281045094132423 0.004966288805007935 109.10414123535156 112.1224365234375"><defs><linearGradient id="e80a456f-e10e-4dba-8361-4a4723f7d754" x1="22.1" y1="89.47" x2="88.34" y2="23.22" gradientTransform="matrix(1, 0, 0, -1, 0, 113.99)" gradientUnits="userSpaceOnUse"><stop offset="0" stop-color="#ffb2c2"></stop><stop offset="1" stop-color="#f85e8a"></stop></linearGradient></defs><title>7614</title><g id="ac37d2ea-c43f-4749-86b1-3b17eb9c3ff6"><g id="e17e0414-da17-4e94-9733-c488ddba6820"><path d="M30.46,19.35C15.82,24.53-.66,51.81,13.42,80c14.92,30,43.47,33.16,61.82,21.52s38-37.43,25.6-63.64C89.56,14.06,60,11.51,52.53,19.29c-6.21,6.48-5.4,30.77,2.69,31.7,5.59.63,11.07,0,11.07-5.68S65.2,32.64,72,32.2s8.67,2.55,8.32,15.18C79.67,69.43,85.51,77,76.12,80s-9.56-11.11-9.85-13.5c-.48-4-12.7-4-12.85,5-.12,6.55-.24,11.8-6.36,11.8-3.57,0-8.57-2.32-10-9-4.16-19.64-3.22-35.21-1.58-45.21C36.85,20.7,34.44,17.94,30.46,19.35Z" fill="url(#e80a456f-e10e-4dba-8361-4a4723f7d754)"></path><g opacity="0.6" style="isolation:isolate"><path d="M8.88,49.17A21.69,21.69,0,0,0,.15,69.24C1.41,80.08,9.63,87.17,20.41,91.05a61.69,61.69,0,0,1-7-11A48.41,48.41,0,0,1,8.88,49.17Z" fill="#ff0098"></path><path d="M81.52,72.33c0,4.07-1.2,6.34-5.4,7.71-9.4,3.06-9.56-11.15-9.85-13.54-.48-4-12.7-4-12.85,5-.12,6.55-.24,11.8-6.36,11.8-3.57,0-8.57-2.32-10-9a135.27,135.27,0,0,1-2.7-19.41v-.77c-1-12.23-15.61-12.47-25.43-4.92A48.36,48.36,0,0,0,13.42,80a61.69,61.69,0,0,0,7,11C45.66,100.13,84.9,91.61,81.52,72.33Z" fill="#ff0098"></path></g><path d="M103.56,45.4a45,45,0,0,0-6.74-9.93C77,13.46,46,19.4,49,41.15c.91,5.28,3,9.46,6.26,9.84,5.59.63,11.07,0,11.07-5.68S65.2,32.64,72,32.2s8.67,2.55,8.32,15.18C79.67,69.43,85.51,77,76.12,80s-9.56-11.11-9.85-13.5c-.48-4-12.7-4-12.85,5-.12,6.55-.24,11.8-6.36,11.8-3.57,0-8.57-2.32-10-9a140,140,0,0,1-2.39-15.49c.6,21.09,7.52,37.37,27.94,42.66a64.22,64.22,0,0,0,9.73,1.75l0,0C108.12,106.52,116.07,70.19,103.56,45.4Zm1.17,8.72c0-.71,0-1.43-.1-2.16C104.68,52.69,104.72,53.41,104.73,54.12Z" fill="#ff3e24" opacity="0.5"></path><path d="M34.48,37.33c1-9.34,5.59-16.33,8.25-21.18,3.86-7-.94-8.3-5.27-7a24.68,24.68,0,0,0-10.14,6.21,33,33,0,0,0-7,11,27,27,0,0,1,10.14-7c3-1.07,5.14.26,5.37,4.6-.25-4.3-2.34-5.61-5.36-4.54a27.06,27.06,0,0,0-10.16,7C12.73,45.47,20.49,72.59,42.23,82a11.23,11.23,0,0,1-5.17-7.7A128.65,128.65,0,0,1,34.42,38C34.44,37.73,34.46,37.54,34.48,37.33Z" fill="#3c2299" opacity="0.5" style="isolation:isolate"></path><path d="M47.7,12.44C49.5,13.88,60.61,3.7,56.61.49S45.9,11,47.7,12.44Zm22.79,94c-1.51-.19-3.4,4.79,0,5.23S72,106.63,70.49,106.44Z" fill="#f757af"></path><path d="M52.51,13.09c-1.1,2.34,6,1.8,5.86-.87S53.21,11.59,52.51,13.09ZM17.2,92.65c-4.17,1.46-1,6.56,1.88,3.25C20.75,94,19.51,91.85,17.2,92.65Z" fill="#ab8eeb"></path><path d="M73.1,106c-.29,1.62.37,4.73,2.26,5.9,1.59,1,6.09-1.38.92-5.53C73.32,104,73.23,105.27,73.1,106Z" fill="#ffbd88"></path></g></g></svg></svg> <!----></g></g> <g transform="translate(67,6.433689117431641)"><g data-gra="path-name" fill-rule="" class="tp-name iconsvg-namesvg" transform="translate(0,0)"><g transform="scale(1)"><g><path d="M21.51-29.78L24.59-29.78Q26.12-26.23 28.81-23.27 31.5-20.3 34.87-17.78L34.87-17.78 32.41-14.01Q31.43-14.85 30.57-15.6 29.71-16.35 28.98-17.05L28.98-17.05 28.98-14.38 17.6-14.38 17.6-17.3Q16.87-16.54 16.08-15.8 15.29-15.07 14.49-14.38L14.49-14.38 13.5-15.77 13.5-0.91 3.15-0.91 3.15-26.01 13.5-26.01 13.5-19.21Q16.13-21.48 18.18-24.09 20.23-26.71 21.51-29.78L21.51-29.78ZM18.8-18.55L27.4-18.55Q25.83-20.09 24.82-21.42 23.82-22.76 23.09-24.18L23.09-24.18Q22.43-22.94 21.31-21.49 20.2-20.05 18.8-18.55L18.8-18.55ZM9.48-5.23L9.48-21.7 7.28-21.7 7.28-5.23 9.48-5.23ZM14.85 2.56L14.85-11.78 31.24-11.78 31.24 2.56 14.85 2.56ZM18.99-7.68L18.99-1.65 27.11-1.65 27.11-7.68 18.99-7.68ZM63.99-20.82L47.27-20.82Q46.1-18.95 44.8-17.23 43.5-15.51 42.11-13.87L42.11-13.87 38.56-16.87Q39.8-18.11 40.99-19.66 42.18-21.22 43.26-22.9 44.34-24.59 45.22-26.29 46.1-27.99 46.68-29.49L46.68-29.49 51.04-28.21Q50.49-26.78 49.79-25.39L49.79-25.39 69.04-25.39 69.04-21Q68.01-19.35 67.02-17.76 66.04-16.17 64.87-14.63L64.87-14.63 60.59-16.32Q61.54-17.38 62.36-18.49 63.18-19.61 63.99-20.82L63.99-20.82ZM52.06-2.93L52.06-19.35 56.85-19.21 56.85-0.91Q56.85 0.37 56.56 1.19 56.27 2.01 55.65 2.52 55.02 3.04 54.04 3.27 53.05 3.51 51.66 3.62L51.66 3.62 48.51 3.88 47.05-0.84 50.27-1.06Q50.89-1.1 51.26-1.19 51.62-1.28 51.8-1.48 51.99-1.68 52.02-2.03 52.06-2.38 52.06-2.93L52.06-2.93ZM58.28-12.51L61.83-15Q62.82-13.79 63.99-12.13 65.16-10.46 66.31-8.65 67.46-6.84 68.52-5.05 69.59-3.26 70.35-1.83L70.35-1.83 66.66 1.1Q65.89-0.37 64.87-2.2 63.84-4.02 62.71-5.89 61.57-7.76 60.42-9.49 59.27-11.23 58.28-12.51L58.28-12.51ZM45.51-14.85L49.61-13.06Q48.88-11.41 47.89-9.62 46.9-7.83 45.77-6.02 44.63-4.21 43.39-2.49 42.15-0.77 40.94 0.73L40.94 0.73 37.17-1.76Q39.62-4.61 41.82-7.94 44.01-11.27 45.51-14.85L45.51-14.85ZM87.7-22.57L87.7-19.9 83.52-19.9 83.52-26.12 91.9-26.12 91.21-29.09 95.82-29.3 96.44-26.12 105.26-26.12 105.26-20.05 101.01-20.05 101.01-22.57 87.7-22.57ZM83.34-24.55L80.82-20.71Q80.3-21.26 79.52-21.93 78.73-22.61 77.89-23.29 77.05-23.96 76.24-24.53 75.44-25.1 74.93-25.43L74.93-25.43 77.38-28.98Q77.96-28.65 78.73-28.1 79.5-27.55 80.32-26.93 81.15-26.3 81.93-25.66 82.72-25.02 83.34-24.55L83.34-24.55ZM106.02-7.83L106.02-3.95 97.24-3.95Q98.23-3.51 99.29-2.98 100.35-2.45 101.41-1.92 102.48-1.39 103.46-0.86 104.45-0.33 105.29 0.15L105.29 0.15 103.57 3.99Q102.7 3.4 101.65 2.76 100.61 2.12 99.51 1.52 98.41 0.91 97.32 0.37 96.22-0.18 95.23-0.62L95.23-0.62 97.06-3.95 90.07-3.95 92.23-0.66Q91.46-0.07 90.48 0.57 89.49 1.21 88.37 1.83 87.26 2.45 86.1 3.02 84.95 3.59 83.93 4.06L83.93 4.06 81.77 0.29Q82.83-0.07 83.96-0.57 85.1-1.06 86.2-1.61 87.29-2.16 88.26-2.76 89.23-3.37 90-3.95L90-3.95 82.5-3.95 82.5-7.83 85.9-7.83 85.9-19.68Q87.51-19.76 89.43-19.94 91.35-20.12 93.29-20.34 95.23-20.56 97.04-20.85 98.85-21.15 100.28-21.44L100.28-21.44 100.94-17.56Q99.84-17.3 98.36-17.07 96.88-16.83 95.36-16.61 93.84-16.39 92.43-16.23 91.02-16.06 90-15.95L90-15.95 90-14.82 104.3-14.82 104.3-10.9 100.06-10.9 100.06-7.83 106.02-7.83ZM82.65-16.02L80.27-12.15Q79.72-12.73 78.84-13.48 77.96-14.23 76.99-14.96 76.02-15.7 75.13-16.34 74.23-16.98 73.61-17.3L73.61-17.3 76.13-20.85Q76.83-20.41 77.73-19.79 78.62-19.17 79.52-18.51 80.41-17.85 81.26-17.2 82.1-16.54 82.65-16.02L82.65-16.02ZM80.27-10.32L82.1-9.7Q81.44-6.77 80.47-3.38 79.5 0 78.29 3.51L78.29 3.51 74.01 2.09Q74.63 0.55 75.24-1.17 75.84-2.89 76.35-4.61 76.87-6.33 77.29-7.99 77.71-9.66 78-11.05L78-11.05 80.27-10.32ZM90-10.9L90-7.83 95.96-7.83 95.96-10.9 90-10.9ZM127.1-10.35L127.1-6.22 111.29-6.22 111.29-28.39 126.8-28.39 126.8-24.33 123-24.33 123-22.21 126.33-22.21 126.33-12.73 123-12.73 123-10.35 127.1-10.35ZM131.85-6.18L131.85-6.18Q130.57-6.26 129.75-6.49 128.93-6.73 128.45-7.28 127.98-7.83 127.77-8.74 127.57-9.66 127.57-11.09L127.57-11.09 127.57-28.28 139.79-28.28 139.79-16.1 131.41-16.1 131.41-11.93Q131.41-10.98 131.74-10.68 132.07-10.39 132.99-10.28L132.99-10.28Q134.3-10.1 135.59-10.28L135.59-10.28Q136.54-10.39 136.96-10.59 137.38-10.79 137.52-11.63L137.52-11.63Q137.63-12.29 137.69-12.75 137.74-13.21 137.82-13.94L137.82-13.94 141.55-12.8Q141.48-12.26 141.46-11.58 141.44-10.9 141.29-10.17L141.29-10.17Q141.07-9.04 140.74-8.3 140.41-7.57 139.81-7.13 139.21-6.7 138.31-6.48 137.41-6.26 136.06-6.18L136.06-6.18Q135.18-6.11 133.96-6.11 132.73-6.11 131.85-6.18ZM114.88-24.33L114.88-10.35 119.09-10.35 119.09-12.73 115.98-12.73 115.98-22.21 119.09-22.21 119.09-24.33 114.88-24.33ZM135.77-24.29L131.41-24.29 131.41-20.09 135.77-20.09 135.77-24.29ZM122.82-18.91L119.27-18.91 119.27-15.95 122.82-15.95 122.82-18.91ZM133.68-4.61L137.52-6.29Q137.96-5.63 138.59-4.63 139.21-3.62 139.85-2.56 140.49-1.5 141.07-0.48 141.66 0.55 142.02 1.28L142.02 1.28 137.89 3.62Q137.52 2.74 137.01 1.61 136.5 0.48 135.91-0.66 135.33-1.79 134.74-2.84 134.16-3.88 133.68-4.61L133.68-4.61ZM113.41 3.88L109.17 2.09Q109.68 1.28 110.25 0.16 110.82-0.95 111.35-2.09 111.88-3.22 112.32-4.3 112.76-5.38 112.98-6.15L112.98-6.15 117.15-4.65Q116.85-3.73 116.41-2.6 115.98-1.46 115.45-0.29 114.91 0.88 114.38 1.98 113.85 3.07 113.41 3.88L113.41 3.88ZM126.18-4.61L130.24-5.74Q130.54-5.2 130.94-4.26 131.34-3.33 131.73-2.32 132.11-1.32 132.44-0.35 132.77 0.62 132.95 1.24L132.95 1.24 128.74 2.74Q128.6 2.09 128.3 1.1 128.01 0.11 127.65-0.93 127.28-1.98 126.9-2.96 126.51-3.95 126.18-4.61L126.18-4.61ZM118.72-4.76L122.93-5.41Q123.11-4.83 123.35-3.9 123.59-2.96 123.82-1.92 124.06-0.88 124.28 0.15 124.5 1.17 124.61 1.9L124.61 1.9 120.26 2.93Q120.18 2.12 120.02 1.08 119.85 0.04 119.63-1.04 119.41-2.12 119.18-3.11 118.94-4.1 118.72-4.76L118.72-4.76ZM153.62-19.83L153.62-21.62 146.89-21.62 146.89-25.98 153.62-25.98 153.62-28.98 158.01-28.79 158.01-25.98 165.77-25.98 165.77-28.98 170.16-28.79 170.16-25.98 177-25.98 177-21.62 170.16-21.62 170.16-19.87 165.77-19.87 165.77-21.62 158.01-21.62 158.01-19.83 153.62-19.83ZM177.11-13.54L159.73-13.54Q158.71-11.93 157.57-10.54L157.57-10.54 174.11-10.54 174.11 2.74 152.01 2.74 152.01-5.12Q150.95-4.28 149.76-3.44 148.57-2.6 147.29-1.76L147.29-1.76 145.06-5.93Q148.17-7.68 150.44-9.55 152.71-11.41 154.39-13.54L154.39-13.54 146.82-13.54 146.82-17.82 157.13-17.82Q157.87-19.35 158.56-21.18L158.56-21.18 162.91-20.09Q162.7-19.5 162.48-18.93 162.26-18.37 162-17.82L162-17.82 177.11-17.82 177.11-13.54ZM169.65-1.5L169.65-6.22 156.48-6.22 156.48-1.5 169.65-1.5Z" transform="translate(-3.1500000953674316, 29.780000686645508)"></path></g> <!----> <!----> <!----> <!----> <!----> <!----> <!----></g></g> <g data-gra="path-slogan" fill-rule="" class="tp-slogan iconsvg-slogansvg" fill="#f757af" transform="translate(5,39.84000015258789)"><rect x="0" height="1" y="3.9750003814697266" width="36.48500442504883"></rect> <rect height="1" y="3.9750003814697266" width="36.48500442504883" x="127.47500228881836"></rect> <g transform="translate(39.48500442504883,0)"><g transform="scale(1)"><path d="M2.06-5.06L6.56-5.06L6.56-8.58L7.73-8.58L7.73 0L6.56 0L6.56-3.98L2.06-3.98L2.06 0L0.89 0L0.89-8.58L2.06-8.58L2.06-5.06ZM15.19 0L14.34-2.48L10.88-2.48L9.98 0L8.81 0L12.05-8.58L13.36-8.58L16.45 0L15.19 0ZM12.61-7.31L11.25-3.52L13.92-3.52L12.66-7.31L12.61-7.31ZM21.61-3.70L18.80-3.70L18.80 0L17.63 0L17.63-8.58L21.61-8.58Q24.47-8.58 24.47-6.28L24.47-6.28Q24.47-4.88 23.25-4.22L23.25-4.22Q24.28-3.94 24.28-2.58L24.28-2.58L24.38-1.03Q24.33-0.38 24.80-0.19L24.80-0.19L24.80 0L23.34 0Q23.20-0.61 23.16-2.16L23.16-2.16Q23.20-3.70 21.61-3.70L21.61-3.70ZM21.70-7.64L18.80-7.64L18.80-4.69L21.52-4.69Q23.25-4.69 23.25-6.19L23.25-6.19Q23.25-7.64 21.70-7.64L21.70-7.64ZM29.34-7.64L27.28-7.64L27.28-4.97L29.34-4.97Q31.17-4.92 31.13-6.38L31.13-6.38Q31.13-7.64 29.34-7.64L29.34-7.64ZM29.81 0L26.11 0L26.11-8.58L29.91-8.58Q32.20-8.48 32.30-6.42L32.30-6.42Q32.30-5.16 31.17-4.64L31.17-4.64Q32.77-4.08 32.77-2.53L32.77-2.53Q32.63-0.09 29.81 0L29.81 0ZM29.53-3.98L27.28-3.98L27.28-0.98L29.77-0.98Q31.55-1.03 31.59-2.53L31.59-2.53Q31.59-3.98 29.53-3.98L29.53-3.98ZM34.27-8.58L35.44-8.58L35.44 0L34.27 0L34.27-8.58ZM38.81-8.58L43.13-1.64L43.13-8.58L44.25-8.58L44.25 0L42.94 0L38.58-6.94L38.53-6.94L38.53 0L37.41 0L37.41-8.58L38.81-8.58ZM56.11-8.58L53.20-4.41L56.25 0L54.80 0L52.45-3.52L50.11 0L48.70 0L51.80-4.41L48.89-8.58L50.34-8.58L52.50-5.30L54.70-8.58L56.11-8.58ZM57.52-8.58L58.69-8.58L58.69 0L57.52 0L57.52-8.58ZM64.78-3.70L61.97-3.70L61.97 0L60.80 0L60.80-8.58L64.78-8.58Q67.64-8.58 67.64-6.28L67.64-6.28Q67.64-4.88 66.42-4.22L66.42-4.22Q67.45-3.94 67.45-2.58L67.45-2.58L67.55-1.03Q67.50-0.38 67.97-0.19L67.97-0.19L67.97 0L66.52 0Q66.38-0.61 66.33-2.16L66.33-2.16Q66.38-3.70 64.78-3.70L64.78-3.70ZM64.88-7.64L61.97-7.64L61.97-4.69L64.69-4.69Q66.42-4.69 66.42-6.19L66.42-6.19Q66.42-7.64 64.88-7.64L64.88-7.64ZM74.95-3.19L74.95-8.58L76.13-8.58L76.13-3.05Q75.98 0.05 72.61 0.14L72.61 0.14Q69.47 0.05 69.33-2.86L69.33-2.86L69.33-8.58L70.50-8.58L70.50-3.19Q70.55-0.84 72.66-0.80L72.66-0.80Q74.95-0.84 74.95-3.19L74.95-3.19ZM84.70-4.27L84.70-4.27Q84.52-7.64 81.70-7.83L81.70-7.83Q78.84-7.69 78.70-4.27L78.70-4.27Q78.84-0.94 81.70-0.80L81.70-0.80Q84.52-0.98 84.70-4.27ZM85.88-4.27L85.88-4.27Q85.59 0 81.70 0.14L81.70 0.14Q77.77 0 77.48-4.27L77.48-4.27Q77.72-8.72 81.70-8.81L81.70-8.81Q85.59-8.67 85.88-4.27Z" transform="translate(-0.890625, 8.8125)"></path></g></g></g></g></g><defs v-gra="od"></defs></svg>